<mxfile host="Electron" modified="2023-11-02T00:35:25.249Z" agent="Mozilla/5.0 (Windows NT 10.0; Win64; x64) AppleWebKit/537.36 (KHTML, like Gecko) draw.io/21.2.8 Chrome/112.0.5615.165 Electron/24.2.0 Safari/537.36" etag="fWjzxG0uNaZZ-4Buqhy9" version="21.2.8" type="device">
  <diagram name="Página-1" id="GNMv7SXZY_hnDp5_fWdu">
    <mxGraphModel dx="2336" dy="2057" grid="1" gridSize="10" guides="1" tooltips="1" connect="1" arrows="1" fold="1" page="1" pageScale="1" pageWidth="827" pageHeight="1169" math="0" shadow="0">
      <root>
        <mxCell id="0" />
        <mxCell id="1" parent="0" />
        <mxCell id="z6pH2jvbVoqLObCWEqa4-36" value="" style="edgeStyle=orthogonalEdgeStyle;rounded=0;orthogonalLoop=1;jettySize=auto;html=1;" parent="1" source="xLxqOia7hBHO6d-qt2hM-1" target="z6pH2jvbVoqLObCWEqa4-15" edge="1">
          <mxGeometry relative="1" as="geometry" />
        </mxCell>
        <mxCell id="xLxqOia7hBHO6d-qt2hM-1" value="USUARIO" style="rounded=0;whiteSpace=wrap;html=1;" parent="1" vertex="1">
          <mxGeometry x="98" y="310" width="120" height="60" as="geometry" />
        </mxCell>
        <mxCell id="xLxqOia7hBHO6d-qt2hM-14" value="" style="edgeStyle=orthogonalEdgeStyle;rounded=0;orthogonalLoop=1;jettySize=auto;html=1;" parent="1" source="xLxqOia7hBHO6d-qt2hM-2" target="xLxqOia7hBHO6d-qt2hM-13" edge="1">
          <mxGeometry relative="1" as="geometry" />
        </mxCell>
        <mxCell id="z6pH2jvbVoqLObCWEqa4-32" value="" style="edgeStyle=orthogonalEdgeStyle;rounded=0;orthogonalLoop=1;jettySize=auto;html=1;" parent="1" source="xLxqOia7hBHO6d-qt2hM-2" target="xLxqOia7hBHO6d-qt2hM-21" edge="1">
          <mxGeometry relative="1" as="geometry" />
        </mxCell>
        <mxCell id="xLxqOia7hBHO6d-qt2hM-2" value="PREGUNTA" style="rounded=0;whiteSpace=wrap;html=1;" parent="1" vertex="1">
          <mxGeometry x="440" y="-140" width="120" height="60" as="geometry" />
        </mxCell>
        <mxCell id="z6pH2jvbVoqLObCWEqa4-35" value="" style="edgeStyle=orthogonalEdgeStyle;rounded=0;orthogonalLoop=1;jettySize=auto;html=1;" parent="1" source="xLxqOia7hBHO6d-qt2hM-3" target="z6pH2jvbVoqLObCWEqa4-15" edge="1">
          <mxGeometry relative="1" as="geometry" />
        </mxCell>
        <mxCell id="z6pH2jvbVoqLObCWEqa4-37" value="" style="edgeStyle=orthogonalEdgeStyle;rounded=0;orthogonalLoop=1;jettySize=auto;html=1;" parent="1" source="xLxqOia7hBHO6d-qt2hM-3" target="z6pH2jvbVoqLObCWEqa4-16" edge="1">
          <mxGeometry relative="1" as="geometry" />
        </mxCell>
        <mxCell id="xLxqOia7hBHO6d-qt2hM-3" value="PARTIDA" style="rounded=0;whiteSpace=wrap;html=1;" parent="1" vertex="1">
          <mxGeometry x="98" y="80" width="120" height="60" as="geometry" />
        </mxCell>
        <mxCell id="z6pH2jvbVoqLObCWEqa4-22" value="" style="edgeStyle=orthogonalEdgeStyle;rounded=0;orthogonalLoop=1;jettySize=auto;html=1;" parent="1" source="xLxqOia7hBHO6d-qt2hM-4" target="z6pH2jvbVoqLObCWEqa4-21" edge="1">
          <mxGeometry relative="1" as="geometry" />
        </mxCell>
        <mxCell id="z6pH2jvbVoqLObCWEqa4-38" value="" style="edgeStyle=orthogonalEdgeStyle;rounded=0;orthogonalLoop=1;jettySize=auto;html=1;" parent="1" source="xLxqOia7hBHO6d-qt2hM-4" target="z6pH2jvbVoqLObCWEqa4-16" edge="1">
          <mxGeometry relative="1" as="geometry" />
        </mxCell>
        <mxCell id="xLxqOia7hBHO6d-qt2hM-4" value="CUESTIONARIO" style="rounded=0;whiteSpace=wrap;html=1;" parent="1" vertex="1">
          <mxGeometry x="440" y="80" width="120" height="60" as="geometry" />
        </mxCell>
        <mxCell id="xLxqOia7hBHO6d-qt2hM-9" value="nombre" style="ellipse;whiteSpace=wrap;html=1;" parent="1" vertex="1">
          <mxGeometry x="20" y="360" width="60" height="40" as="geometry" />
        </mxCell>
        <mxCell id="xLxqOia7hBHO6d-qt2hM-10" value="contraseña" style="ellipse;whiteSpace=wrap;html=1;" parent="1" vertex="1">
          <mxGeometry x="116.75" y="390" width="80" height="50" as="geometry" />
        </mxCell>
        <mxCell id="xLxqOia7hBHO6d-qt2hM-11" value="email" style="ellipse;whiteSpace=wrap;html=1;" parent="1" vertex="1">
          <mxGeometry x="46" y="410" width="60" height="30" as="geometry" />
        </mxCell>
        <mxCell id="xLxqOia7hBHO6d-qt2hM-12" value="&lt;u&gt;id&lt;/u&gt;" style="ellipse;whiteSpace=wrap;html=1;" parent="1" vertex="1">
          <mxGeometry x="550" y="-200" width="60" height="40" as="geometry" />
        </mxCell>
        <mxCell id="xLxqOia7hBHO6d-qt2hM-13" value="estar" style="rhombus;whiteSpace=wrap;html=1;" parent="1" vertex="1">
          <mxGeometry x="460" y="-40" width="80" height="80" as="geometry" />
        </mxCell>
        <mxCell id="xLxqOia7hBHO6d-qt2hM-16" value="puntaje" style="ellipse;whiteSpace=wrap;html=1;" parent="1" vertex="1">
          <mxGeometry x="460" y="-215" width="70" height="50" as="geometry" />
        </mxCell>
        <mxCell id="xLxqOia7hBHO6d-qt2hM-17" value="&lt;u&gt;cuestionario&lt;/u&gt;" style="ellipse;whiteSpace=wrap;html=1;" parent="1" vertex="1">
          <mxGeometry x="374" y="-55" width="80" height="55" as="geometry" />
        </mxCell>
        <mxCell id="xLxqOia7hBHO6d-qt2hM-18" value="" style="endArrow=none;html=1;rounded=0;entryX=0.06;entryY=0.733;entryDx=0;entryDy=0;entryPerimeter=0;exitX=0.94;exitY=0.717;exitDx=0;exitDy=0;exitPerimeter=0;" parent="1" source="xLxqOia7hBHO6d-qt2hM-17" target="xLxqOia7hBHO6d-qt2hM-17" edge="1">
          <mxGeometry width="50" height="50" relative="1" as="geometry">
            <mxPoint x="494" y="-26" as="sourcePoint" />
            <mxPoint x="554" y="-30" as="targetPoint" />
          </mxGeometry>
        </mxCell>
        <mxCell id="xLxqOia7hBHO6d-qt2hM-19" value="tipo" style="ellipse;whiteSpace=wrap;html=1;" parent="1" vertex="1">
          <mxGeometry x="387" y="-200" width="54" height="40" as="geometry" />
        </mxCell>
        <mxCell id="xLxqOia7hBHO6d-qt2hM-29" value="" style="edgeStyle=orthogonalEdgeStyle;rounded=0;orthogonalLoop=1;jettySize=auto;html=1;" parent="1" source="xLxqOia7hBHO6d-qt2hM-20" target="xLxqOia7hBHO6d-qt2hM-21" edge="1">
          <mxGeometry relative="1" as="geometry" />
        </mxCell>
        <mxCell id="xLxqOia7hBHO6d-qt2hM-20" value="RESPUESTA" style="rounded=0;whiteSpace=wrap;html=1;" parent="1" vertex="1">
          <mxGeometry x="120" y="-140" width="120" height="60" as="geometry" />
        </mxCell>
        <mxCell id="xLxqOia7hBHO6d-qt2hM-21" value="Responder" style="rhombus;whiteSpace=wrap;html=1;" parent="1" vertex="1">
          <mxGeometry x="290" y="-150" width="80" height="80" as="geometry" />
        </mxCell>
        <mxCell id="xLxqOia7hBHO6d-qt2hM-22" value="descripcion" style="ellipse;whiteSpace=wrap;html=1;" parent="1" vertex="1">
          <mxGeometry x="93.25" y="-205" width="66.75" height="50" as="geometry" />
        </mxCell>
        <mxCell id="xLxqOia7hBHO6d-qt2hM-24" value="correcta" style="ellipse;whiteSpace=wrap;html=1;" parent="1" vertex="1">
          <mxGeometry x="170" y="-205" width="60.75" height="45" as="geometry" />
        </mxCell>
        <mxCell id="xLxqOia7hBHO6d-qt2hM-25" value="&lt;u&gt;id&lt;/u&gt;" style="ellipse;whiteSpace=wrap;html=1;" parent="1" vertex="1">
          <mxGeometry x="45.25" y="-140" width="60.75" height="45" as="geometry" />
        </mxCell>
        <mxCell id="xLxqOia7hBHO6d-qt2hM-26" value="descripcion" style="ellipse;whiteSpace=wrap;html=1;" parent="1" vertex="1">
          <mxGeometry x="590" y="-160" width="80" height="50" as="geometry" />
        </mxCell>
        <mxCell id="xLxqOia7hBHO6d-qt2hM-31" value="&lt;u&gt;id&lt;/u&gt;" style="ellipse;whiteSpace=wrap;html=1;" parent="1" vertex="1">
          <mxGeometry x="585" y="130" width="40" height="30" as="geometry" />
        </mxCell>
        <mxCell id="z6pH2jvbVoqLObCWEqa4-1" value="tematica" style="ellipse;whiteSpace=wrap;html=1;" parent="1" vertex="1">
          <mxGeometry x="570" y="165" width="70" height="50" as="geometry" />
        </mxCell>
        <mxCell id="z6pH2jvbVoqLObCWEqa4-2" value="&lt;u&gt;id&lt;/u&gt;" style="ellipse;whiteSpace=wrap;html=1;" parent="1" vertex="1">
          <mxGeometry x="216" y="380" width="40" height="30" as="geometry" />
        </mxCell>
        <mxCell id="z6pH2jvbVoqLObCWEqa4-4" value="1:M" style="text;html=1;strokeColor=none;fillColor=none;align=center;verticalAlign=middle;whiteSpace=wrap;rounded=0;" parent="1" vertex="1">
          <mxGeometry x="300" y="-170" width="60" height="30" as="geometry" />
        </mxCell>
        <mxCell id="z6pH2jvbVoqLObCWEqa4-5" value="1:M" style="text;html=1;strokeColor=none;fillColor=none;align=center;verticalAlign=middle;whiteSpace=wrap;rounded=0;" parent="1" vertex="1">
          <mxGeometry x="520" y="-15" width="60" height="30" as="geometry" />
        </mxCell>
        <mxCell id="z6pH2jvbVoqLObCWEqa4-6" value="cantJugadores" style="ellipse;whiteSpace=wrap;html=1;" parent="1" vertex="1">
          <mxGeometry x="128" width="90" height="60" as="geometry" />
        </mxCell>
        <mxCell id="z6pH2jvbVoqLObCWEqa4-7" value="publicaPriv" style="ellipse;whiteSpace=wrap;html=1;" parent="1" vertex="1">
          <mxGeometry x="41" y="5" width="70" height="50" as="geometry" />
        </mxCell>
        <mxCell id="z6pH2jvbVoqLObCWEqa4-8" value="&lt;u&gt;codigo&lt;/u&gt;" style="ellipse;whiteSpace=wrap;html=1;" parent="1" vertex="1">
          <mxGeometry x="228" y="30" width="60" height="40" as="geometry" />
        </mxCell>
        <mxCell id="z6pH2jvbVoqLObCWEqa4-9" value="&lt;u&gt;usuario&lt;/u&gt;" style="ellipse;whiteSpace=wrap;html=1;" parent="1" vertex="1">
          <mxGeometry x="41" y="220" width="70" height="50" as="geometry" />
        </mxCell>
        <mxCell id="z6pH2jvbVoqLObCWEqa4-10" value="" style="endArrow=none;html=1;rounded=0;exitX=0.071;exitY=0.74;exitDx=0;exitDy=0;exitPerimeter=0;entryX=0.914;entryY=0.74;entryDx=0;entryDy=0;entryPerimeter=0;" parent="1" source="z6pH2jvbVoqLObCWEqa4-9" target="z6pH2jvbVoqLObCWEqa4-9" edge="1">
          <mxGeometry width="50" height="50" relative="1" as="geometry">
            <mxPoint x="527" y="465" as="sourcePoint" />
            <mxPoint x="577" y="415" as="targetPoint" />
          </mxGeometry>
        </mxCell>
        <mxCell id="z6pH2jvbVoqLObCWEqa4-11" value="&lt;u&gt;cuestionario&lt;/u&gt;" style="ellipse;whiteSpace=wrap;html=1;" parent="1" vertex="1">
          <mxGeometry x="-20" y="60" width="100" height="50" as="geometry" />
        </mxCell>
        <mxCell id="z6pH2jvbVoqLObCWEqa4-12" value="" style="endArrow=none;html=1;rounded=0;entryX=0.94;entryY=0.78;entryDx=0;entryDy=0;entryPerimeter=0;exitX=0.06;exitY=0.8;exitDx=0;exitDy=0;exitPerimeter=0;" parent="1" source="z6pH2jvbVoqLObCWEqa4-11" target="z6pH2jvbVoqLObCWEqa4-11" edge="1">
          <mxGeometry width="50" height="50" relative="1" as="geometry">
            <mxPoint x="-44" y="100" as="sourcePoint" />
            <mxPoint x="-44" y="-100" as="targetPoint" />
          </mxGeometry>
        </mxCell>
        <mxCell id="z6pH2jvbVoqLObCWEqa4-14" value="puntajeJugador" style="ellipse;whiteSpace=wrap;html=1;" parent="1" vertex="1">
          <mxGeometry x="208" y="170" width="100" height="60" as="geometry" />
        </mxCell>
        <mxCell id="z6pH2jvbVoqLObCWEqa4-15" value="jugar" style="rhombus;whiteSpace=wrap;html=1;" parent="1" vertex="1">
          <mxGeometry x="118.38" y="180" width="80" height="80" as="geometry" />
        </mxCell>
        <mxCell id="z6pH2jvbVoqLObCWEqa4-16" value="incluir" style="rhombus;whiteSpace=wrap;html=1;" parent="1" vertex="1">
          <mxGeometry x="300" y="70" width="80" height="80" as="geometry" />
        </mxCell>
        <mxCell id="z6pH2jvbVoqLObCWEqa4-18" value="&lt;u&gt;codigo_partida&lt;/u&gt;" style="ellipse;whiteSpace=wrap;html=1;" parent="1" vertex="1">
          <mxGeometry x="31" y="165" width="80" height="45" as="geometry" />
        </mxCell>
        <mxCell id="z6pH2jvbVoqLObCWEqa4-19" value="" style="endArrow=none;html=1;rounded=0;entryX=0;entryY=1;entryDx=0;entryDy=0;exitX=1;exitY=1;exitDx=0;exitDy=0;" parent="1" source="z6pH2jvbVoqLObCWEqa4-18" target="z6pH2jvbVoqLObCWEqa4-18" edge="1">
          <mxGeometry width="50" height="50" relative="1" as="geometry">
            <mxPoint x="-12" y="330" as="sourcePoint" />
            <mxPoint x="38" y="280" as="targetPoint" />
          </mxGeometry>
        </mxCell>
        <mxCell id="z6pH2jvbVoqLObCWEqa4-30" value="" style="edgeStyle=orthogonalEdgeStyle;rounded=0;orthogonalLoop=1;jettySize=auto;html=1;" parent="1" source="z6pH2jvbVoqLObCWEqa4-20" target="z6pH2jvbVoqLObCWEqa4-21" edge="1">
          <mxGeometry relative="1" as="geometry" />
        </mxCell>
        <mxCell id="z6pH2jvbVoqLObCWEqa4-20" value="GENEROS" style="rounded=0;whiteSpace=wrap;html=1;" parent="1" vertex="1">
          <mxGeometry x="810" y="80" width="120" height="60" as="geometry" />
        </mxCell>
        <mxCell id="z6pH2jvbVoqLObCWEqa4-21" value="pertenecer" style="rhombus;whiteSpace=wrap;html=1;" parent="1" vertex="1">
          <mxGeometry x="660" y="70" width="80" height="80" as="geometry" />
        </mxCell>
        <mxCell id="z6pH2jvbVoqLObCWEqa4-24" value="nombres" style="ellipse;whiteSpace=wrap;html=1;" parent="1" vertex="1">
          <mxGeometry x="920" y="160" width="70" height="40" as="geometry" />
        </mxCell>
        <mxCell id="z6pH2jvbVoqLObCWEqa4-25" value="&lt;u&gt;id&lt;/u&gt;" style="ellipse;whiteSpace=wrap;html=1;" parent="1" vertex="1">
          <mxGeometry x="850" y="150" width="50" height="40" as="geometry" />
        </mxCell>
        <mxCell id="z6pH2jvbVoqLObCWEqa4-27" value="1:M" style="text;html=1;strokeColor=none;fillColor=none;align=center;verticalAlign=middle;whiteSpace=wrap;rounded=0;" parent="1" vertex="1">
          <mxGeometry x="675" y="150" width="60" height="30" as="geometry" />
        </mxCell>
        <mxCell id="z6pH2jvbVoqLObCWEqa4-28" value="&lt;u&gt;id_genero&lt;/u&gt;" style="ellipse;whiteSpace=wrap;html=1;" parent="1" vertex="1">
          <mxGeometry x="500" y="180" width="70" height="60" as="geometry" />
        </mxCell>
        <mxCell id="z6pH2jvbVoqLObCWEqa4-29" value="" style="endArrow=none;html=1;rounded=0;exitX=0.017;exitY=0.675;exitDx=0;exitDy=0;exitPerimeter=0;entryX=0.992;entryY=0.663;entryDx=0;entryDy=0;entryPerimeter=0;" parent="1" source="z6pH2jvbVoqLObCWEqa4-28" target="z6pH2jvbVoqLObCWEqa4-28" edge="1">
          <mxGeometry width="50" height="50" relative="1" as="geometry">
            <mxPoint x="700" y="270" as="sourcePoint" />
            <mxPoint x="750" y="220" as="targetPoint" />
          </mxGeometry>
        </mxCell>
        <mxCell id="z6pH2jvbVoqLObCWEqa4-34" value="" style="endArrow=classic;html=1;rounded=0;" parent="1" source="xLxqOia7hBHO6d-qt2hM-4" target="xLxqOia7hBHO6d-qt2hM-13" edge="1">
          <mxGeometry width="50" height="50" relative="1" as="geometry">
            <mxPoint x="420" y="60" as="sourcePoint" />
            <mxPoint x="470" y="10" as="targetPoint" />
          </mxGeometry>
        </mxCell>
        <mxCell id="z6pH2jvbVoqLObCWEqa4-39" value="1:M" style="text;html=1;strokeColor=none;fillColor=none;align=center;verticalAlign=middle;whiteSpace=wrap;rounded=0;" parent="1" vertex="1">
          <mxGeometry x="310" y="140" width="60" height="30" as="geometry" />
        </mxCell>
        <mxCell id="z6pH2jvbVoqLObCWEqa4-40" value="M:M" style="text;html=1;strokeColor=none;fillColor=none;align=center;verticalAlign=middle;whiteSpace=wrap;rounded=0;" parent="1" vertex="1">
          <mxGeometry x="168" y="240" width="32" height="20" as="geometry" />
        </mxCell>
        <mxCell id="z6pH2jvbVoqLObCWEqa4-41" value="" style="endArrow=none;html=1;rounded=0;" parent="1" source="xLxqOia7hBHO6d-qt2hM-1" target="xLxqOia7hBHO6d-qt2hM-9" edge="1">
          <mxGeometry width="50" height="50" relative="1" as="geometry">
            <mxPoint x="-20" y="430" as="sourcePoint" />
            <mxPoint x="30" y="380" as="targetPoint" />
          </mxGeometry>
        </mxCell>
        <mxCell id="z6pH2jvbVoqLObCWEqa4-42" value="" style="endArrow=none;html=1;rounded=0;" parent="1" source="xLxqOia7hBHO6d-qt2hM-1" target="xLxqOia7hBHO6d-qt2hM-11" edge="1">
          <mxGeometry width="50" height="50" relative="1" as="geometry">
            <mxPoint x="-40" y="500" as="sourcePoint" />
            <mxPoint x="10" y="450" as="targetPoint" />
          </mxGeometry>
        </mxCell>
        <mxCell id="z6pH2jvbVoqLObCWEqa4-43" value="" style="endArrow=none;html=1;rounded=0;" parent="1" source="xLxqOia7hBHO6d-qt2hM-10" target="xLxqOia7hBHO6d-qt2hM-1" edge="1">
          <mxGeometry width="50" height="50" relative="1" as="geometry">
            <mxPoint x="120" y="450" as="sourcePoint" />
            <mxPoint x="170" y="400" as="targetPoint" />
          </mxGeometry>
        </mxCell>
        <mxCell id="z6pH2jvbVoqLObCWEqa4-44" value="" style="endArrow=none;html=1;rounded=0;" parent="1" source="xLxqOia7hBHO6d-qt2hM-1" target="z6pH2jvbVoqLObCWEqa4-2" edge="1">
          <mxGeometry width="50" height="50" relative="1" as="geometry">
            <mxPoint x="190" y="480" as="sourcePoint" />
            <mxPoint x="240" y="430" as="targetPoint" />
          </mxGeometry>
        </mxCell>
        <mxCell id="z6pH2jvbVoqLObCWEqa4-45" value="" style="endArrow=none;html=1;rounded=0;" parent="1" source="z6pH2jvbVoqLObCWEqa4-15" target="z6pH2jvbVoqLObCWEqa4-9" edge="1">
          <mxGeometry width="50" height="50" relative="1" as="geometry">
            <mxPoint x="-60" y="320" as="sourcePoint" />
            <mxPoint x="-10" y="270" as="targetPoint" />
          </mxGeometry>
        </mxCell>
        <mxCell id="z6pH2jvbVoqLObCWEqa4-46" value="" style="endArrow=none;html=1;rounded=0;" parent="1" source="z6pH2jvbVoqLObCWEqa4-15" target="z6pH2jvbVoqLObCWEqa4-18" edge="1">
          <mxGeometry width="50" height="50" relative="1" as="geometry">
            <mxPoint x="-50" y="340" as="sourcePoint" />
            <mxPoint y="290" as="targetPoint" />
          </mxGeometry>
        </mxCell>
        <mxCell id="z6pH2jvbVoqLObCWEqa4-47" value="" style="endArrow=none;html=1;rounded=0;" parent="1" source="z6pH2jvbVoqLObCWEqa4-15" target="z6pH2jvbVoqLObCWEqa4-14" edge="1">
          <mxGeometry width="50" height="50" relative="1" as="geometry">
            <mxPoint x="250" y="310" as="sourcePoint" />
            <mxPoint x="300" y="260" as="targetPoint" />
          </mxGeometry>
        </mxCell>
        <mxCell id="z6pH2jvbVoqLObCWEqa4-48" value="" style="endArrow=none;html=1;rounded=0;" parent="1" source="xLxqOia7hBHO6d-qt2hM-3" target="z6pH2jvbVoqLObCWEqa4-11" edge="1">
          <mxGeometry width="50" height="50" relative="1" as="geometry">
            <mxPoint x="-120" y="190" as="sourcePoint" />
            <mxPoint x="-70" y="140" as="targetPoint" />
          </mxGeometry>
        </mxCell>
        <mxCell id="z6pH2jvbVoqLObCWEqa4-49" value="" style="endArrow=none;html=1;rounded=0;" parent="1" source="xLxqOia7hBHO6d-qt2hM-3" target="z6pH2jvbVoqLObCWEqa4-7" edge="1">
          <mxGeometry width="50" height="50" relative="1" as="geometry">
            <mxPoint x="-40" y="150" as="sourcePoint" />
            <mxPoint x="10" y="100" as="targetPoint" />
          </mxGeometry>
        </mxCell>
        <mxCell id="z6pH2jvbVoqLObCWEqa4-50" value="" style="endArrow=none;html=1;rounded=0;" parent="1" source="xLxqOia7hBHO6d-qt2hM-3" target="z6pH2jvbVoqLObCWEqa4-6" edge="1">
          <mxGeometry width="50" height="50" relative="1" as="geometry">
            <mxPoint x="-80" y="200" as="sourcePoint" />
            <mxPoint x="-30" y="150" as="targetPoint" />
          </mxGeometry>
        </mxCell>
        <mxCell id="z6pH2jvbVoqLObCWEqa4-51" value="" style="endArrow=none;html=1;rounded=0;" parent="1" source="xLxqOia7hBHO6d-qt2hM-3" target="z6pH2jvbVoqLObCWEqa4-8" edge="1">
          <mxGeometry width="50" height="50" relative="1" as="geometry">
            <mxPoint x="-50" y="60" as="sourcePoint" />
            <mxPoint y="10" as="targetPoint" />
          </mxGeometry>
        </mxCell>
        <mxCell id="z6pH2jvbVoqLObCWEqa4-52" value="" style="endArrow=none;html=1;rounded=0;" parent="1" source="xLxqOia7hBHO6d-qt2hM-20" target="xLxqOia7hBHO6d-qt2hM-25" edge="1">
          <mxGeometry width="50" height="50" relative="1" as="geometry">
            <mxPoint x="-60" y="-120" as="sourcePoint" />
            <mxPoint x="-10" y="-170" as="targetPoint" />
          </mxGeometry>
        </mxCell>
        <mxCell id="z6pH2jvbVoqLObCWEqa4-53" value="" style="endArrow=none;html=1;rounded=0;" parent="1" source="xLxqOia7hBHO6d-qt2hM-20" target="xLxqOia7hBHO6d-qt2hM-22" edge="1">
          <mxGeometry width="50" height="50" relative="1" as="geometry">
            <mxPoint x="-70" y="-150" as="sourcePoint" />
            <mxPoint x="-20" y="-200" as="targetPoint" />
          </mxGeometry>
        </mxCell>
        <mxCell id="z6pH2jvbVoqLObCWEqa4-54" value="" style="endArrow=none;html=1;rounded=0;" parent="1" source="xLxqOia7hBHO6d-qt2hM-20" target="xLxqOia7hBHO6d-qt2hM-24" edge="1">
          <mxGeometry width="50" height="50" relative="1" as="geometry">
            <mxPoint x="-30" y="-150" as="sourcePoint" />
            <mxPoint x="20" y="-200" as="targetPoint" />
          </mxGeometry>
        </mxCell>
        <mxCell id="z6pH2jvbVoqLObCWEqa4-55" value="" style="endArrow=none;html=1;rounded=0;" parent="1" source="xLxqOia7hBHO6d-qt2hM-2" target="xLxqOia7hBHO6d-qt2hM-19" edge="1">
          <mxGeometry width="50" height="50" relative="1" as="geometry">
            <mxPoint x="360" y="-90" as="sourcePoint" />
            <mxPoint x="410" y="-140" as="targetPoint" />
          </mxGeometry>
        </mxCell>
        <mxCell id="z6pH2jvbVoqLObCWEqa4-56" value="" style="endArrow=none;html=1;rounded=0;" parent="1" source="xLxqOia7hBHO6d-qt2hM-2" target="xLxqOia7hBHO6d-qt2hM-16" edge="1">
          <mxGeometry width="50" height="50" relative="1" as="geometry">
            <mxPoint x="330" as="sourcePoint" />
            <mxPoint x="380" y="-50" as="targetPoint" />
          </mxGeometry>
        </mxCell>
        <mxCell id="z6pH2jvbVoqLObCWEqa4-57" value="" style="endArrow=none;html=1;rounded=0;" parent="1" source="xLxqOia7hBHO6d-qt2hM-2" target="xLxqOia7hBHO6d-qt2hM-12" edge="1">
          <mxGeometry width="50" height="50" relative="1" as="geometry">
            <mxPoint x="410" y="-10" as="sourcePoint" />
            <mxPoint x="460" y="-60" as="targetPoint" />
          </mxGeometry>
        </mxCell>
        <mxCell id="z6pH2jvbVoqLObCWEqa4-58" value="" style="endArrow=none;html=1;rounded=0;" parent="1" source="xLxqOia7hBHO6d-qt2hM-2" target="xLxqOia7hBHO6d-qt2hM-26" edge="1">
          <mxGeometry width="50" height="50" relative="1" as="geometry">
            <mxPoint x="690" y="-130" as="sourcePoint" />
            <mxPoint x="740" y="-180" as="targetPoint" />
          </mxGeometry>
        </mxCell>
        <mxCell id="z6pH2jvbVoqLObCWEqa4-60" value="" style="endArrow=none;html=1;rounded=0;" parent="1" source="xLxqOia7hBHO6d-qt2hM-2" target="xLxqOia7hBHO6d-qt2hM-17" edge="1">
          <mxGeometry width="50" height="50" relative="1" as="geometry">
            <mxPoint x="360" y="220" as="sourcePoint" />
            <mxPoint x="440" y="180" as="targetPoint" />
          </mxGeometry>
        </mxCell>
        <mxCell id="z6pH2jvbVoqLObCWEqa4-61" value="" style="endArrow=none;html=1;rounded=0;" parent="1" source="xLxqOia7hBHO6d-qt2hM-4" target="z6pH2jvbVoqLObCWEqa4-28" edge="1">
          <mxGeometry width="50" height="50" relative="1" as="geometry">
            <mxPoint x="350" y="320" as="sourcePoint" />
            <mxPoint x="400" y="270" as="targetPoint" />
          </mxGeometry>
        </mxCell>
        <mxCell id="z6pH2jvbVoqLObCWEqa4-62" value="" style="endArrow=none;html=1;rounded=0;" parent="1" source="z6pH2jvbVoqLObCWEqa4-1" target="xLxqOia7hBHO6d-qt2hM-4" edge="1">
          <mxGeometry width="50" height="50" relative="1" as="geometry">
            <mxPoint x="530" y="170" as="sourcePoint" />
            <mxPoint x="580" y="120" as="targetPoint" />
          </mxGeometry>
        </mxCell>
        <mxCell id="z6pH2jvbVoqLObCWEqa4-63" value="" style="endArrow=none;html=1;rounded=0;" parent="1" source="xLxqOia7hBHO6d-qt2hM-31" target="xLxqOia7hBHO6d-qt2hM-4" edge="1">
          <mxGeometry width="50" height="50" relative="1" as="geometry">
            <mxPoint x="370" y="300" as="sourcePoint" />
            <mxPoint x="420" y="250" as="targetPoint" />
          </mxGeometry>
        </mxCell>
        <mxCell id="z6pH2jvbVoqLObCWEqa4-64" value="" style="endArrow=none;html=1;rounded=0;" parent="1" source="z6pH2jvbVoqLObCWEqa4-20" target="z6pH2jvbVoqLObCWEqa4-25" edge="1">
          <mxGeometry width="50" height="50" relative="1" as="geometry">
            <mxPoint x="710" y="270" as="sourcePoint" />
            <mxPoint x="760" y="220" as="targetPoint" />
          </mxGeometry>
        </mxCell>
        <mxCell id="z6pH2jvbVoqLObCWEqa4-65" value="" style="endArrow=none;html=1;rounded=0;" parent="1" source="z6pH2jvbVoqLObCWEqa4-20" target="z6pH2jvbVoqLObCWEqa4-24" edge="1">
          <mxGeometry width="50" height="50" relative="1" as="geometry">
            <mxPoint x="690" y="290" as="sourcePoint" />
            <mxPoint x="740" y="240" as="targetPoint" />
          </mxGeometry>
        </mxCell>
        <mxCell id="7UuQ2HRhxfmTDotqt60j-3" style="rounded=0;orthogonalLoop=1;jettySize=auto;html=1;endArrow=none;endFill=0;" edge="1" parent="1" source="7UuQ2HRhxfmTDotqt60j-1" target="xLxqOia7hBHO6d-qt2hM-20">
          <mxGeometry relative="1" as="geometry" />
        </mxCell>
        <mxCell id="7UuQ2HRhxfmTDotqt60j-1" value="&lt;u&gt;respuesta&lt;/u&gt;" style="ellipse;whiteSpace=wrap;html=1;" vertex="1" parent="1">
          <mxGeometry x="135" y="-70" width="90" height="60" as="geometry" />
        </mxCell>
        <mxCell id="7UuQ2HRhxfmTDotqt60j-2" value="" style="endArrow=none;html=1;rounded=0;exitX=0.033;exitY=0.733;exitDx=0;exitDy=0;exitPerimeter=0;entryX=0.989;entryY=0.733;entryDx=0;entryDy=0;entryPerimeter=0;" edge="1" parent="1" source="7UuQ2HRhxfmTDotqt60j-1" target="7UuQ2HRhxfmTDotqt60j-1">
          <mxGeometry width="50" height="50" relative="1" as="geometry">
            <mxPoint x="200" y="70" as="sourcePoint" />
            <mxPoint x="250" y="20" as="targetPoint" />
          </mxGeometry>
        </mxCell>
        <mxCell id="7UuQ2HRhxfmTDotqt60j-5" style="edgeStyle=none;rounded=0;orthogonalLoop=1;jettySize=auto;html=1;endArrow=none;endFill=0;" edge="1" parent="1" source="7UuQ2HRhxfmTDotqt60j-4" target="z6pH2jvbVoqLObCWEqa4-15">
          <mxGeometry relative="1" as="geometry" />
        </mxCell>
        <mxCell id="7UuQ2HRhxfmTDotqt60j-4" value="conectado" style="ellipse;whiteSpace=wrap;html=1;" vertex="1" parent="1">
          <mxGeometry x="216" y="240" width="100" height="60" as="geometry" />
        </mxCell>
      </root>
    </mxGraphModel>
  </diagram>
</mxfile>
